<svg width="17" height="17" viewBox="0 0 17 17" fill="none" xmlns="http://www.w3.org/2000/svg">
<path d="M16.3462 0H0.653846C0.292923 0 0 0.292923 0 0.653846C0 1.01477 0.292923 1.30769 0.653846 1.30769H14.7674L0.191577 15.8839C-0.06375 16.1392 -0.06375 16.5531 0.191577 16.8084C0.319404 16.9363 0.486462 17 0.653846 17C0.821231 17 0.988615 16.9363 1.11612 16.8084L15.6923 2.23223V16.3462C15.6923 16.7071 15.9852 17 16.3462 17C16.7071 17 17 16.7071 17 16.3462V0.653846C17 0.292923 16.7071 0 16.3462 0Z" fill="white"/>
</svg>
