<svg width="51" height="52" viewBox="0 0 51 52" fill="none" xmlns="http://www.w3.org/2000/svg">
<ellipse cx="25.5" cy="26" rx="25.5" ry="26" fill="white"/>
<path d="M33.3203 22.4117C33.2412 21.7524 32.6199 21.1202 31.9697 21.0354C28.0055 20.5429 23.9967 20.5429 20.0336 21.0354C19.383 21.12 18.7616 21.7524 18.6826 22.4117C18.4027 24.8282 18.4027 27.1711 18.6826 29.587C18.7616 30.2463 19.383 30.8791 20.0336 30.9632C23.9967 31.4559 28.0056 31.4559 31.9697 30.9632C32.6199 30.8794 33.2412 30.2463 33.3203 29.587C33.6001 27.1714 33.6001 24.8282 33.3203 22.4117ZM24.7465 28.5094V23.49L28.5109 25.9999L24.7465 28.5094Z" fill="black"/>
</svg>
